<svg xmlns="http://www.w3.org/2000/svg" xmlns:xlink="http://www.w3.org/1999/xlink" width="211.285" height="53.163" viewBox="0 0 211.285 53.163"><defs><clipPath id="a"><path d="M1028.176,186.785a10.087,10.087,0,0,1-10.086,10.086v10.086a20.172,20.172,0,0,0,20.171-20.171Z" transform="translate(-1018.09 -186.785)" fill="none"/></clipPath><linearGradient id="b" x1="0.5" x2="0.5" y2="1" gradientUnits="objectBoundingBox"><stop offset="0" stop-color="#ff5c00"/><stop offset="0.007" stop-color="#ff5c00"/><stop offset="0.994" stop-color="#ff9e66"/><stop offset="1" stop-color="#ff9e66"/></linearGradient></defs><g transform="translate(-990 -168.845)"><g transform="translate(990 168.845)"><path d="M1010.383,174.4a5.534,5.534,0,1,0,5.534-5.559,5.546,5.546,0,0,0-5.534,5.559" transform="translate(-995.746 -168.845)" fill="#000073"/><path d="M1010.171,196.871V186.785A20.171,20.171,0,0,0,990,206.956h10.086a10.085,10.085,0,0,1,10.085-10.086" transform="translate(-990 -173.903)" fill="#000073"/></g><g transform="translate(1010.171 181.727)"><g transform="translate(0)" clip-path="url(#a)"><rect width="28.501" height="28.501" transform="translate(4.869 29.552) rotate(-120)" fill="url(#b)"/></g></g><g transform="translate(1039.904 181.143)"><path d="M1069.59,193.455a2.466,2.466,0,0,0-2.452-2.6h-3.028v5.191h3.028a2.467,2.467,0,0,0,2.452-2.6m4.614,0a6.936,6.936,0,0,1-7.065,6.921h-3.028v6.345H1059.5V186.534h7.642a6.936,6.936,0,0,1,7.065,6.921" transform="translate(-1059.496 -186.13)" fill="#000073"/><path d="M1089.255,196.05h3.46a2.614,2.614,0,0,0,0-5.191h-3.46Zm2.192,4.037h-2.192v6.633h-4.615V186.533h8.076a6.9,6.9,0,0,1,6.922,6.922,6.654,6.654,0,0,1-3.72,5.854l4.3,7.411h-4.96Z" transform="translate(-1066.584 -186.129)" fill="#000073"/><path d="M1125.565,196.468a5.884,5.884,0,1,0-5.883,6,5.741,5.741,0,0,0,5.883-6m-16.379,0a10.5,10.5,0,1,1,10.5,10.5,10.406,10.406,0,0,1-10.5-10.5" transform="translate(-1073.504 -185.971)" fill="#000073"/></g><path d="M1159.348,186.533v20.188h-4.614V198.7h-6.345v8.017h-4.615V186.533h4.615v7.729h6.345v-7.729Z" transform="translate(-43.351 -4.986)" fill="#000073"/><g transform="translate(1120.594 181.546)"><path d="M1171.864,200.2v-13.67h4.614V199.8c0,1.529.721,2.826,3.172,2.826s3.172-1.3,3.172-2.826V186.533h4.615V200.2c0,4.326-3.346,6.921-7.787,6.921s-7.786-2.6-7.786-6.921" transform="translate(-1171.864 -186.533)" fill="#000073"/></g><path d="M1220.142,206.72h-4.615V194.983l-5.22,8.565h-.518l-5.22-8.565V206.72h-4.615V186.533h4.615l5.479,8.969,5.479-8.969h4.615Z" transform="translate(-59.189 -4.986)" fill="#000073"/><path d="M1243.145,199.222l-2.365-7.411-2.365,7.411Zm1.384,4.326h-7.5l-1.01,3.172h-5.047l6.864-20.188h5.884l6.864,20.188h-5.046Z" transform="translate(-67.934 -4.986)" fill="#000073"/><path d="M1278.006,186.533v20.188h-3.461l-7.786-10.959v10.959h-4.615V186.533h3.461l7.786,10.958V186.533Z" transform="translate(-76.721 -4.986)" fill="#000073"/><g transform="translate(1040.287 211.303)"><path d="M1066.249,233.208q0-3.4-2.9-3.4h-1.152v6.876h.928q3.128,0,3.127-3.474m2.249-.058a5.3,5.3,0,0,1-1.436,3.994,5.725,5.725,0,0,1-4.143,1.387h-2.89V227.971h3.2a5.284,5.284,0,0,1,3.881,1.365,5.12,5.12,0,0,1,1.383,3.814" transform="translate(-1060.029 -227.971)" fill="#000073"/></g><rect width="2.164" height="10.559" transform="translate(1059.878 211.303)" fill="#000073"/><g transform="translate(1072.334 208.089)"><path d="M1108.434,225.865v-.195a20.308,20.308,0,0,0,1.641-2.174h2.388v.151q-.363.376-1.239,1.116t-1.372,1.1Zm2.5,7.014q-1.026-3.417-1.155-3.865c-.086-.3-.148-.534-.185-.707q-.231.924-1.319,4.572Zm1.256,4.391-.74-2.513h-3.721l-.741,2.513h-2.332l3.6-10.6h2.646l3.616,10.6Z" transform="translate(-1104.658 -223.496)" fill="#000073"/></g><path d="M1140.918,238.531h-2.457l-2.675-4.449-.914.679v3.77h-2.164V227.972h2.164V232.8l.852-1.242,2.765-3.59h2.4l-3.561,4.673Z" transform="translate(-40.231 -16.669)" fill="#000073"/><g transform="translate(1110.964 211.303)"><path d="M1162.775,238.531l-2.458-8.285h-.063q.134,2.528.133,3.373v4.912h-1.934V227.972h2.947l2.416,8.075h.042l2.562-8.075h2.946v10.559h-2.018v-5q0-.354.01-.816t.095-2.456h-.063l-2.632,8.27Z" transform="translate(-1158.453 -227.971)" fill="#000073"/><path d="M1198.05,227.971V234.8a4.046,4.046,0,0,1-.506,2.052,3.343,3.343,0,0,1-1.462,1.351,5.082,5.082,0,0,1-2.262.47,4.24,4.24,0,0,1-3.059-1.045,3.768,3.768,0,0,1-1.088-2.856v-6.8h2.157v6.465a2.774,2.774,0,0,0,.475,1.792,1.941,1.941,0,0,0,1.57.571,1.894,1.894,0,0,0,1.539-.574,2.789,2.789,0,0,0,.478-1.8v-6.451Z" transform="translate(-1167.255 -227.971)" fill="#000073"/><path d="M1226.418,238.531h-2.75l-4.44-7.989h-.063q.132,2.117.133,3.02v4.969h-1.934V227.972h2.729l4.433,7.909h.048q-.1-2.059-.1-2.911v-5h1.948Z" transform="translate(-1175.061 -227.971)" fill="#000073"/></g><path d="M1254.284,238.531h-2.458l-2.674-4.449-.914.679v3.77h-2.164V227.972h2.164V232.8l.852-1.242,2.764-3.59h2.4l-3.56,4.673Z" transform="translate(-72.191 -16.669)" fill="#000073"/><g transform="translate(1191.186 211.26)"><path d="M1276.446,234.123q-1.027-3.417-1.156-3.865t-.185-.707q-.23.924-1.319,4.572Zm1.257,4.391-.741-2.513h-3.721l-.74,2.513h-2.332l3.6-10.6h2.646l3.616,10.6Z" transform="translate(-1270.17 -227.911)" fill="#000073"/></g></g></svg>